<svg width="21" height="18" viewBox="0 0 21 18" fill="none" xmlns="http://www.w3.org/2000/svg">
<path d="M10.8195 0.940863C12.4444 0.940863 13.9831 1.31016 15.4357 2.04875C16.8267 2.76272 17.9992 3.75058 18.9532 5.01234C19.9072 6.2741 20.5258 7.68665 20.8089 9.25C20.5258 10.8134 19.9072 12.2259 18.9532 13.4877C17.9992 14.7494 16.8267 15.7373 15.4357 16.4513C13.9831 17.1898 12.4444 17.5591 10.8195 17.5591C9.19461 17.5591 7.65588 17.1898 6.20332 16.4513C4.81231 15.7373 3.6398 14.7494 2.68579 13.4877C1.73177 12.2259 1.1132 10.8134 0.830078 9.25C1.1132 7.68665 1.73177 6.2741 2.68579 5.01234C3.6398 3.75058 4.81231 2.76272 6.20332 2.04875C7.65588 1.31016 9.19461 0.940863 10.8195 0.940863ZM10.8195 15.7127C12.0997 15.7127 13.3184 15.4295 14.4755 14.8633C15.5957 14.3217 16.5467 13.5584 17.3283 12.5737C18.11 11.5889 18.6424 10.481 18.9255 9.25C18.6424 8.01902 18.11 6.91113 17.3283 5.92635C16.5467 4.94156 15.5957 4.17835 14.4755 3.63672C13.3184 3.07047 12.0997 2.78734 10.8195 2.78734C9.53929 2.78734 8.32061 3.07047 7.16349 3.63672C6.04329 4.17835 5.09236 4.94156 4.31068 5.92635C3.52901 6.91113 2.99661 8.01902 2.71348 9.25C2.99661 10.481 3.52901 11.5889 4.31068 12.5737C5.09236 13.5584 6.04329 14.3217 7.16349 14.8633C8.32061 15.4295 9.53929 15.7127 10.8195 15.7127ZM10.8195 13.4046C10.0686 13.4046 9.37618 13.2168 8.74223 12.8414C8.10827 12.4659 7.60357 11.9612 7.22812 11.3273C6.85267 10.6933 6.66494 10.0009 6.66494 9.25C6.66494 8.4991 6.85267 7.80667 7.22812 7.17272C7.60357 6.53876 8.10827 6.03406 8.74223 5.65861C9.37618 5.28316 10.0686 5.09543 10.8195 5.09543C11.5704 5.09543 12.2628 5.28316 12.8968 5.65861C13.5308 6.03406 14.0355 6.53876 14.4109 7.17272C14.7864 7.80667 14.9741 8.4991 14.9741 9.25C14.9741 10.0009 14.7864 10.6933 14.4109 11.3273C14.0355 11.9612 13.5308 12.4659 12.8968 12.8414C12.2628 13.2168 11.5704 13.4046 10.8195 13.4046ZM10.8195 11.5581C11.238 11.5581 11.6227 11.4535 11.9736 11.2442C12.3244 11.0349 12.6044 10.7549 12.8137 10.4041C13.023 10.0532 13.1276 9.66854 13.1276 9.25C13.1276 8.83147 13.023 8.44679 12.8137 8.09596C12.6044 7.74513 12.3244 7.46508 11.9736 7.25581C11.6227 7.04654 11.238 6.94191 10.8195 6.94191C10.401 6.94191 10.0163 7.04654 9.66546 7.25581C9.31463 7.46508 9.03458 7.74513 8.82532 8.09596C8.61605 8.44679 8.51142 8.83147 8.51142 9.25C8.51142 9.66854 8.61605 10.0532 8.82532 10.4041C9.03458 10.7549 9.31463 11.0349 9.66546 11.2442C10.0163 11.4535 10.401 11.5581 10.8195 11.5581Z" fill="black"/>
</svg>
