<svg width="20" height="18" viewBox="0 0 20 18" fill="none" xmlns="http://www.w3.org/2000/svg">
<path d="M10.0617 2.1226C10.7757 1.48249 11.5943 1.06088 12.5175 0.857767C13.4407 0.654655 14.3517 0.676197 15.2503 0.922394C16.1858 1.1809 16.9952 1.65175 17.6784 2.33495C18.3616 3.01814 18.8325 3.82752 19.091 4.76306C19.3372 5.66168 19.3587 6.56953 19.1556 7.48662C18.9525 8.4037 18.5309 9.22538 17.8908 9.95166L10.0617 17.7807L2.23264 9.95166C1.59253 9.22538 1.17092 8.4037 0.967805 7.48662C0.764693 6.56953 0.786235 5.66168 1.03243 4.76306C1.29094 3.82752 1.76487 3.01814 2.45422 2.33495C3.14357 1.65175 3.94986 1.1809 4.8731 0.922394C5.77172 0.676197 6.68265 0.654655 7.60588 0.857767C8.52912 1.06088 9.34773 1.48249 10.0617 2.1226ZM16.3582 3.63671C15.9027 3.18125 15.3734 2.87043 14.7702 2.70424C14.167 2.53806 13.5577 2.52267 12.9422 2.65808C12.3267 2.79349 11.7789 3.07662 11.2988 3.50746L10.0617 4.61535L8.82456 3.50746C8.35678 3.07662 7.81207 2.79349 7.19043 2.65808C6.56878 2.52267 5.95637 2.53806 5.35318 2.70424C4.75 2.87043 4.22068 3.18125 3.76522 3.63671C3.30975 4.09218 2.99585 4.6215 2.82351 5.22468C2.65118 5.82786 2.62963 6.43412 2.75889 7.04346C2.88814 7.6528 3.16203 8.19751 3.58057 8.67759L10.0617 15.1772L16.5428 8.67759C16.9614 8.19751 17.2353 7.6528 17.3645 7.04346C17.4938 6.43412 17.4722 5.82786 17.2999 5.22468C17.1275 4.6215 16.8136 4.09218 16.3582 3.63671Z" fill="black"/>
</svg>
