<svg width="15" height="15" viewBox="0 0 15 15" fill="none" xmlns="http://www.w3.org/2000/svg">
<g clip-path="url(#clip0_8336_522)">
<path d="M14.0898 2.49669H2.56318V2.31002C2.50095 1.87446 2.30651 1.50891 1.97984 1.21335C1.65318 0.917797 1.25651 0.77002 0.789844 0.77002H0.0898438V1.93669H0.789844C0.945399 1.93669 1.07762 1.98335 1.18651 2.07669C1.2954 2.17002 1.3654 2.29446 1.39651 2.45002L2.32984 10.29C2.36095 10.7567 2.53984 11.13 2.86651 11.41C3.19318 11.69 3.58984 11.8456 4.05651 11.8767H11.7565V10.6634H4.05651C3.90095 10.6634 3.76873 10.6167 3.65984 10.5234C3.55095 10.43 3.48095 10.3056 3.44984 10.15L3.40318 9.49669H12.8298L14.0898 2.49669ZM11.8498 8.33002H3.26318L2.70318 3.66335H12.6898L11.8498 8.33002ZM3.02984 13.6034C2.99873 13.9145 3.09984 14.1867 3.33318 14.42C3.56651 14.6534 3.84651 14.77 4.17318 14.77C4.49984 14.77 4.77207 14.6534 4.98984 14.42C5.20762 14.1867 5.32429 13.9145 5.33984 13.6034C5.3554 13.2922 5.24651 13.02 5.01318 12.7867C4.77984 12.5534 4.49984 12.4367 4.17318 12.4367C3.84651 12.4367 3.57429 12.5534 3.35651 12.7867C3.13873 13.02 3.02984 13.2922 3.02984 13.6034ZM8.86318 13.6034C8.83207 13.9145 8.93318 14.1867 9.16651 14.42C9.39984 14.6534 9.67984 14.77 10.0065 14.77C10.3332 14.77 10.6054 14.6534 10.8232 14.42C11.041 14.1867 11.1576 13.9145 11.1732 13.6034C11.1887 13.2922 11.0798 13.02 10.8465 12.7867C10.6132 12.5534 10.3332 12.4367 10.0065 12.4367C9.67984 12.4367 9.40762 12.5534 9.18984 12.7867C8.97207 13.02 8.86318 13.2922 8.86318 13.6034Z" fill="white"/>
</g>
<defs>
<clipPath id="clip0_8336_522">
<rect width="14" height="14" fill="white" transform="matrix(1 0 0 -1 0.0898438 14.77)"/>
</clipPath>
</defs>
</svg>
