<svg width="19" height="18" viewBox="0 0 19 18" fill="none" xmlns="http://www.w3.org/2000/svg">
<g clip-path="url(#clip0_8330_1362)">
<path d="M7.83333 6.77506C7.44611 6.77506 7.08958 6.86951 6.76375 7.0584C6.43792 7.24729 6.18056 7.50465 5.99167 7.83048C5.80278 8.15631 5.70833 8.51284 5.70833 8.90006C5.70833 9.28729 5.80278 9.64382 5.99167 9.96965C6.18056 10.2955 6.43792 10.5528 6.76375 10.7417C7.08958 10.9306 7.44611 11.0251 7.83333 11.0251C8.22056 11.0251 8.57708 10.9306 8.90292 10.7417C9.22875 10.5528 9.48611 10.2955 9.675 9.96965C9.86389 9.64382 9.95833 9.28729 9.95833 8.90006C9.95833 8.51284 9.86389 8.15631 9.675 7.83048C9.48611 7.50465 9.22875 7.24729 8.90292 7.0584C8.57708 6.86951 8.22056 6.77506 7.83333 6.77506ZM7.83333 5.3584C8.47556 5.3584 9.06819 5.51659 9.61125 5.83298C10.1543 6.14937 10.584 6.57909 10.9004 7.12215C11.2168 7.6652 11.375 8.25784 11.375 8.90006C11.375 9.54229 11.2168 10.1349 10.9004 10.678C10.584 11.221 10.1543 11.6508 9.61125 11.9671C9.06819 12.2835 8.47556 12.4417 7.83333 12.4417C7.19111 12.4417 6.59847 12.2835 6.05542 11.9671C5.51236 11.6508 5.08264 11.221 4.76625 10.678C4.44986 10.1349 4.29167 9.54229 4.29167 8.90006C4.29167 8.25784 4.44986 7.6652 4.76625 7.12215C5.08264 6.57909 5.51236 6.14937 6.05542 5.83298C6.59847 5.51659 7.19111 5.3584 7.83333 5.3584ZM12.4375 5.17423C12.4375 5.41979 12.3501 5.62993 12.1754 5.80465C12.0007 5.97937 11.7929 6.06673 11.5521 6.06673C11.3113 6.06673 11.1035 5.97937 10.9288 5.80465C10.754 5.62993 10.6667 5.42215 10.6667 5.18131C10.6667 4.94048 10.754 4.7327 10.9288 4.55798C11.1035 4.38326 11.3113 4.2959 11.5521 4.2959C11.7929 4.2959 12.0007 4.38326 12.1754 4.55798C12.3501 4.7327 12.4375 4.93812 12.4375 5.17423ZM7.83333 3.2334C6.96444 3.2334 6.37417 3.23576 6.0625 3.24048C5.75083 3.2452 5.39194 3.25701 4.98583 3.2759C4.47583 3.29479 4.05083 3.37034 3.71083 3.50256C3.41806 3.6159 3.16069 3.78354 2.93875 4.00548C2.71681 4.22743 2.54917 4.48479 2.43583 4.77757C2.30361 5.11757 2.22806 5.54256 2.20917 6.05256C2.19028 6.43979 2.17847 6.78687 2.17375 7.09381C2.16903 7.40076 2.16667 8.00284 2.16667 8.90006C2.16667 9.76895 2.16903 10.3592 2.17375 10.6709C2.17847 10.9826 2.19028 11.3415 2.20917 11.7476C2.22806 12.2576 2.30361 12.6826 2.43583 13.0226C2.54917 13.3153 2.71681 13.5727 2.93875 13.7946C3.16069 14.0166 3.41806 14.1795 3.71083 14.2834C4.05083 14.4251 4.47583 14.5053 4.98583 14.5242C5.37306 14.5431 5.72014 14.5549 6.02708 14.5596C6.33403 14.5644 6.93611 14.5667 7.83333 14.5667C8.70222 14.5667 9.2925 14.5644 9.60417 14.5596C9.91583 14.5549 10.2747 14.5431 10.6808 14.5242C11.1908 14.5053 11.6158 14.4298 11.9558 14.2976C12.2486 14.1842 12.506 14.0166 12.7279 13.7946C12.9499 13.5727 13.1128 13.3153 13.2167 13.0226C13.3583 12.6826 13.4386 12.2576 13.4575 11.7476C13.4764 11.3603 13.4882 11.0133 13.4929 10.7063C13.4976 10.3994 13.5 9.79729 13.5 8.90006C13.5 8.03118 13.4976 7.4409 13.4929 7.12923C13.4882 6.81756 13.4764 6.45868 13.4575 6.05256C13.4386 5.54256 13.3631 5.11757 13.2308 4.77757C13.1175 4.48479 12.9499 4.22743 12.7279 4.00548C12.506 3.78354 12.2486 3.6159 11.9558 3.50256C11.6158 3.37034 11.1908 3.29479 10.6808 3.2759C10.2936 3.25701 9.94653 3.2452 9.63958 3.24048C9.33264 3.23576 8.73056 3.2334 7.83333 3.2334ZM7.83333 1.81673C8.75889 1.81673 9.39167 1.82145 9.73167 1.8309C10.015 1.8309 10.355 1.84034 10.7517 1.85923C11.4128 1.88756 11.9842 1.99618 12.4658 2.18506C12.9475 2.37395 13.3678 2.64784 13.7267 3.00673C14.0856 3.36562 14.3594 3.7859 14.5483 4.26756C14.7372 4.74923 14.8458 5.32062 14.8742 5.98173C14.8931 6.38784 14.9025 6.72784 14.9025 7.00173C14.9119 7.36062 14.9167 7.99812 14.9167 8.91423C14.9167 9.83034 14.9119 10.4584 14.9025 10.7984C14.9025 11.0817 14.8931 11.4217 14.8742 11.8184C14.8458 12.4795 14.7372 13.0509 14.5483 13.5326C14.3594 14.0142 14.0856 14.4345 13.7267 14.7934C13.3678 15.1523 12.9475 15.4262 12.4658 15.6151C11.9842 15.804 11.4128 15.9126 10.7517 15.9409C10.3456 15.9598 10.0056 15.9692 9.73167 15.9692C9.37278 15.9787 8.73528 15.9834 7.81917 15.9834C6.90306 15.9834 6.275 15.9787 5.935 15.9692C5.65167 15.9692 5.31167 15.9598 4.915 15.9409C4.25389 15.9126 3.6825 15.804 3.20083 15.6151C2.71917 15.4262 2.29889 15.1523 1.94 14.7934C1.58111 14.4345 1.30722 14.0142 1.11833 13.5326C0.929444 13.0509 0.820833 12.4795 0.7925 11.8184C0.773611 11.4123 0.764167 11.0723 0.764167 10.7984C0.754722 10.4395 0.75 9.80201 0.75 8.8859C0.75 7.96979 0.754722 7.34173 0.764167 7.00173C0.764167 6.7184 0.773611 6.3784 0.7925 5.98173C0.820833 5.32062 0.929444 4.74923 1.11833 4.26756C1.30722 3.7859 1.58111 3.36562 1.94 3.00673C2.29889 2.64784 2.71917 2.37395 3.20083 2.18506C3.6825 1.99618 4.25389 1.88756 4.915 1.85923C5.32111 1.84034 5.66111 1.8309 5.935 1.8309C6.29389 1.82145 6.92667 1.81673 7.83333 1.81673Z" fill="black"/>
</g>
<defs>
<clipPath id="clip0_8330_1362">
<rect width="17.48" height="17" fill="white" transform="matrix(1 0 0 -1 0.75 17.3999)"/>
</clipPath>
</defs>
</svg>
